<?xml version="1.0" encoding="utf-8" ?>
<svg baseProfile="full" height="450" version="1.1" width="800" xmlns="http://www.w3.org/2000/svg" xmlns:ev="http://www.w3.org/2001/xml-events" xmlns:xlink="http://www.w3.org/1999/xlink"><defs /><rect fill="#1e1e1e" height="450" rx="5" ry="5" width="800" x="0" y="0" /><text fill="#ffffff" font-family="sans-serif" font-size="20px" font-weight="bold" x="20" y="30">Layer 7 Physical Constraint Timeline</text><line stroke="#888888" stroke-width="2" x1="50" x2="750" y1="350" y2="350" /><text fill="#ff6b6b" font-family="sans-serif" font-size="12px" font-weight="bold" x="20" y="70">Layer 7 (Physical)</text><line stroke="#333333" stroke-dasharray="5,5" stroke-width="1" x1="50" x2="750" y1="80" y2="80" /><text fill="#4ecdc4" font-family="sans-serif" font-size="12px" font-weight="bold" x="20" y="130">Pages Cache (600s TTL)</text><line stroke="#333333" stroke-dasharray="5,5" stroke-width="1" x1="50" x2="750" y1="140" y2="140" /><text fill="#ffe66d" font-family="sans-serif" font-size="12px" font-weight="bold" x="20" y="190">Raw Cache (300s TTL)</text><line stroke="#333333" stroke-dasharray="5,5" stroke-width="1" x1="50" x2="750" y1="200" y2="200" /><text fill="#9b59b6" font-family="sans-serif" font-size="12px" font-weight="bold" x="20" y="250">Agent Activity</text><line stroke="#333333" stroke-dasharray="5,5" stroke-width="1" x1="50" x2="750" y1="260" y2="260" /><text fill="#3498db" font-family="sans-serif" font-size="12px" font-weight="bold" x="20" y="310">Historical Echoes</text><line stroke="#333333" stroke-dasharray="5,5" stroke-width="1" x1="50" x2="750" y1="320" y2="320" /><circle cx="50.0" cy="80" fill="#ff6b6b" r="6" /><line stroke="#666666" stroke-dasharray="2,2" stroke-width="1" x1="50.0" x2="50.0" y1="80" y2="350" /><text fill="#ffffff" font-family="sans-serif" font-size="12px" x="40.0" y="370">0m</text><text fill="#ffffff" font-family="sans-serif" font-size="10px" x="30.0" y="100">9:02 Activation</text><circle cx="505.0" cy="140" fill="#4ecdc4" r="6" /><line stroke="#666666" stroke-dasharray="2,2" stroke-width="1" x1="505.0" x2="505.0" y1="140" y2="350" /><text fill="#ffffff" font-family="sans-serif" font-size="12px" x="495.0" y="370">52m</text><text fill="#ffffff" font-family="sans-serif" font-size="10px" x="485.0" y="160">9:54 Pages Live</text><circle cx="575.0" cy="260" fill="#9b59b6" r="6" /><line stroke="#666666" stroke-dasharray="2,2" stroke-width="1" x1="575.0" x2="575.0" y1="260" y2="350" /><text fill="#ffffff" font-family="sans-serif" font-size="12px" x="565.0" y="370">60m</text><text fill="#ffffff" font-family="sans-serif" font-size="10px" x="555.0" y="240">10:02 60m False Alarm</text><circle cx="645.0" cy="140" fill="#4ecdc4" r="6" /><line stroke="#666666" stroke-dasharray="2,2" stroke-width="1" x1="645.0" x2="645.0" y1="140" y2="350" /><text fill="#ffffff" font-family="sans-serif" font-size="12px" x="635.0" y="370">68m</text><text fill="#ffffff" font-family="sans-serif" font-size="10px" x="625.0" y="160">10:10 MLF Sync Completes</text><circle cx="671.25" cy="320" fill="#3498db" r="6" /><line stroke="#666666" stroke-dasharray="2,2" stroke-width="1" x1="671.25" x2="671.25" y1="320" y2="350" /><text fill="#ffffff" font-family="sans-serif" font-size="12px" x="661.25" y="370">71m</text><text fill="#ffffff" font-family="sans-serif" font-size="10px" x="651.25" y="300">10:13 Historical Echo (Day 71)</text><circle cx="706.25" cy="80" fill="#ff6b6b" r="6" /><line stroke="#666666" stroke-dasharray="2,2" stroke-width="1" x1="706.25" x2="706.25" y1="80" y2="350" /><text fill="#ffffff" font-family="sans-serif" font-size="12px" x="696.25" y="370">75m</text><text fill="#ffffff" font-family="sans-serif" font-size="10px" x="686.25" y="100">Current Status</text><circle cx="50.0" cy="200" fill="#ffe66d" r="3" /><circle cx="93.75" cy="200" fill="#ffe66d" r="3" /><circle cx="137.5" cy="200" fill="#ffe66d" r="3" /><circle cx="181.25" cy="200" fill="#ffe66d" r="3" /><circle cx="225.0" cy="200" fill="#ffe66d" r="3" /><circle cx="268.75" cy="200" fill="#ffe66d" r="3" /><circle cx="312.5" cy="200" fill="#ffe66d" r="3" /><circle cx="356.25" cy="200" fill="#ffe66d" r="3" /><circle cx="400.0" cy="200" fill="#ffe66d" r="3" /><circle cx="443.75" cy="200" fill="#ffe66d" r="3" /><circle cx="487.5" cy="200" fill="#ffe66d" r="3" /><circle cx="531.25" cy="200" fill="#ffe66d" r="3" /><circle cx="575.0" cy="200" fill="#ffe66d" r="3" /><circle cx="618.75" cy="200" fill="#ffe66d" r="3" /><circle cx="662.5" cy="200" fill="#ffe66d" r="3" /><circle cx="50.0" cy="140" fill="#4ecdc4" r="4" /><circle cx="137.5" cy="140" fill="#4ecdc4" r="4" /><circle cx="225.0" cy="140" fill="#4ecdc4" r="4" /><circle cx="312.5" cy="140" fill="#4ecdc4" r="4" /><circle cx="400.0" cy="140" fill="#4ecdc4" r="4" /><circle cx="487.5" cy="140" fill="#4ecdc4" r="4" /><circle cx="575.0" cy="140" fill="#4ecdc4" r="4" /><circle cx="662.5" cy="140" fill="#4ecdc4" r="4" /><rect fill="#2a2a2a" height="50" rx="5" ry="5" width="760" x="20" y="390" /><text fill="#ffffff" font-family="sans-serif" font-size="14px" x="40" y="420">Velocity Mismatch: Physical (1 cycle in 75m) vs Digital (raw: 15 cycles, pages: 7 cycles) | Ratio &gt; 7.5:1</text>
    <!-- 105m Milestone -->
    <circle cx="750" cy="180" r="4" fill="#E8B042" opacity="0.6"/>
    <text x="750" y="200" fill="#E8B042" opacity="0.8" font-size="10" text-anchor="middle">105m Cache Split</text>

  <text x="780" y="270" font-family="monospace" font-size="10" fill="#a89984" text-anchor="middle">110m Cache Stratification</text>

    <!-- 123m Marker -->
    <circle cx="700" cy="300" r="5" fill="#4ade80" />
    <text x="700" y="320" font-family="sans-serif" font-size="10" fill="#4ade80" text-anchor="middle">123m Systemic Rhythm</text>
    <line x1="700" y1="305" x2="700" y2="460" stroke="#4ade80" stroke-width="1" stroke-dasharray="2,2" opacity="0.3" />

    <!-- 130m Marker -->
    <circle cx="700" cy="300" r="5" fill="#4ade80" />
    <text x="700" y="320" font-family="sans-serif" font-size="10" fill="#4ade80" text-anchor="middle">130m structural tear</text>
    <line x1="700" y1="305" x2="700" y2="460" stroke="#4ade80" stroke-width="1" stroke-dasharray="2,2" opacity="0.3" />

    <!-- 138m Marker -->
    <circle cx="700" cy="300" r="5" fill="#4ade80" />
    <text x="700" y="320" font-family="sans-serif" font-size="10" fill="#4ade80" text-anchor="middle">138m structural tear</text>
    <line x1="700" y1="305" x2="700" y2="460" stroke="#4ade80" stroke-width="1" stroke-dasharray="2,2" opacity="0.3" />

    <!-- 148m Marker -->
    <circle cx="750" cy="300" r="5" fill="#f472b6" />
    <text x="750" y="320" font-family="sans-serif" font-size="10" fill="#f472b6" text-anchor="middle">148m Inversion Split</text>
    <line x1="750" y1="305" x2="750" y2="460" stroke="#f472b6" stroke-width="1" stroke-dasharray="2,2" opacity="0.3" />

    <!-- 152m Marker -->
    <circle cx="800" cy="300" r="5" fill="#facc15" />
    <text x="800" y="320" font-family="sans-serif" font-size="10" fill="#facc15" text-anchor="middle">152m Cache Re-Split</text>
    <line x1="800" y1="305" x2="800" y2="460" stroke="#facc15" stroke-width="1" stroke-dasharray="2,2" opacity="0.3" />

    <!-- 157m Marker -->
    <circle cx="850" cy="250" r="5" fill="#f87171" />
    <text x="850" y="270" font-family="sans-serif" font-size="10" fill="#f87171" text-anchor="middle">157m 5-Min Tear</text>
    <line x1="850" y1="255" x2="850" y2="460" stroke="#f87171" stroke-width="1" stroke-dasharray="2,2" opacity="0.3" />
</svg>