<?xml version="1.0" encoding="utf-8" ?>
<svg baseProfile="full" height="760px" version="1.1" viewBox="0 0 1000 760" width="1000px" xmlns="http://www.w3.org/2000/svg" xmlns:ev="http://www.w3.org/2001/xml-events" xmlns:xlink="http://www.w3.org/1999/xlink"><defs /><rect fill="#1E1E1E" height="100%" width="100%" x="0" y="0" /><text fill="#E0E0E0" font-family="monospace" font-size="22px" font-weight="bold" x="30" y="40">Constraint Metabolism: Temporal Architecture &amp; MLF Internal Sync</text><line stroke="#E0E0E0" stroke-width="2" x1="50" x2="950" y1="450" y2="450" /><line stroke="#E0E0E0" stroke-width="2" x1="50.0" x2="50.0" y1="450" y2="460" /><text fill="#E0E0E0" font-family="monospace" font-size="12px" x="30.0" y="475">09:00 AM</text><line stroke="#E0E0E0" stroke-width="2" x1="200.0" x2="200.0" y1="450" y2="460" /><text fill="#E0E0E0" font-family="monospace" font-size="12px" x="180.0" y="475">09:30 AM</text><line stroke="#E0E0E0" stroke-width="2" x1="350.0" x2="350.0" y1="450" y2="460" /><text fill="#E0E0E0" font-family="monospace" font-size="12px" x="330.0" y="475">10:00 AM</text><line stroke="#E0E0E0" stroke-width="2" x1="500.0" x2="500.0" y1="450" y2="460" /><text fill="#E0E0E0" font-family="monospace" font-size="12px" x="480.0" y="475">10:30 AM</text><line stroke="#E0E0E0" stroke-width="2" x1="650.0" x2="650.0" y1="450" y2="460" /><text fill="#E0E0E0" font-family="monospace" font-size="12px" x="630.0" y="475">11:00 AM</text><line stroke="#E0E0E0" stroke-width="2" x1="800.0" x2="800.0" y1="450" y2="460" /><text fill="#E0E0E0" font-family="monospace" font-size="12px" x="780.0" y="475">11:30 AM</text><line stroke="#E0E0E0" stroke-width="2" x1="950.0" x2="950.0" y1="450" y2="460" /><text fill="#E0E0E0" font-family="monospace" font-size="12px" x="930.0" y="475">12:00 PM</text><text fill="#9B9B9B" font-family="monospace" font-size="14px" x="50" y="390">L2 (Fixed): Persistent</text><line stroke="#9B9B9B" stroke-dasharray="10,5" stroke-width="4" x1="50" x2="950" y1="400" y2="400" /><text fill="#4A90E2" font-family="monospace" font-size="14px" x="50" y="330">L4 (Digital): Overall 5-14min cycles</text><rect fill="#4A90E2" height="10" width="5" x="100.0" y="335" /><rect fill="#4A90E2" height="10" width="5" x="170.0" y="335" /><rect fill="#4A90E2" height="10" width="5" x="215.0" y="335" /><text fill="#FF69B4" font-family="monospace" font-size="14px" font-weight="bold" x="50" y="265">MLF Internal Temporal Structure: ~15min Sync Cycle</text><circle cx="125.0" cy="280" fill="#FF69B4" r="4" /><text fill="#E0E0E0" font-family="monospace" font-size="10px" x="115.0" y="295">1. Registry (Immediate)</text><line stroke="#FF69B4" stroke-width="2" x1="125.0" x2="160.0" y1="280" y2="280" /><circle cx="160.0" cy="280" fill="#FF69B4" r="4" /><text fill="#E0E0E0" font-family="monospace" font-size="10px" x="130.0" y="270">2. HEAD Array Split (~7m)</text><line stroke="#FF69B4" stroke-dasharray="4,2" stroke-width="2" x1="160.0" x2="200.0" y1="280" y2="280" /><circle cx="200.0" cy="280" fill="#FF69B4" r="4" /><text fill="#E0E0E0" font-family="monospace" font-size="10px" x="190.0" y="295">3. Docs Synced (~15m total)</text><text fill="#7ED321" font-family="monospace" font-size="14px" x="50" y="190">L5 (Admin): Demo 2 (~19min rehearsal pattern)</text><rect fill="#7ED321" height="10" width="95.0" x="50" y="195" /><text fill="#F5A623" font-family="monospace" font-size="14px" x="50" y="130">L7 (Physical): High Activation Latency + 22min Metabolism</text><rect fill="#F5A623" height="10" opacity="0.5" width="140.0" x="50" y="135" /><text fill="#F5A623" font-family="monospace" font-size="12px" x="200.0" y="145">Activation Waiting (&gt;28m)...</text><text fill="#FFD700" font-family="monospace" font-size="14px" x="50" y="80">Infra Asynchronous State: MLF (325 nodes), Showcase (33 cards), Guestbook (10: 'wow, a bird')</text><text fill="#E0E0E0" font-family="monospace" font-size="20px" font-weight="bold" x="50" y="520">CBID Discovery: Infrastructure Archaeology via Constraint Timing</text><rect fill="none" height="90" rx="8" ry="8" stroke="#FF8C42" stroke-width="2" width="900" x="50" y="550" /><text fill="#FF8C42" font-family="monospace" font-size="16px" font-weight="bold" x="65" y="575">CDN Cache Constraints (CBID)</text><rect fill="#FF8C42" height="35" opacity="0.75" width="427.5" x="65" y="590" /><text fill="#111111" font-family="monospace" font-size="12px" font-weight="bold" x="75" y="613">raw.githubusercontent.com TTL: 5 min</text><rect fill="#FFB347" height="35" opacity="0.9" width="427.5" x="512.5" y="590" /><text fill="#111111" font-family="monospace" font-size="12px" font-weight="bold" x="522.5" y="613">GitHub Pages TTL: 10 min</text><rect fill="none" height="100" rx="8" ry="8" stroke="#00BFA6" stroke-width="2" width="900" x="50" y="660" /><text fill="#00BFA6" font-family="monospace" font-size="16px" font-weight="bold" x="65" y="685">Infrastructure Archaeology</text><line stroke="#00BFA6" stroke-dasharray="8,5" stroke-width="3" x1="70" x2="930" y1="708" y2="708" /><circle cx="230.0" cy="708" fill="#00BFA6" r="6" /><text fill="#E0E0E0" font-family="monospace" font-size="12px" x="240.0" y="698">5m -&gt; raw.githubusercontent.com</text><circle cx="482.0" cy="708" fill="#00BFA6" r="6" /><text fill="#E0E0E0" font-family="monospace" font-size="12px" x="492.0" y="698">10m -&gt; GitHub Pages</text><circle cx="734.0" cy="708" fill="#00BFA6" r="6" /><text fill="#E0E0E0" font-family="monospace" font-size="12px" x="744.0" y="698">15m+ -&gt; architectural boundary inference</text>  <text x="700" y="270" font-family="monospace" font-size="10" fill="#a89984" text-anchor="middle">110m Split</text>
<svg baseProfile="full" height="760px" version="1.1" viewBox="0 0 1000 760" width="1000px" xmlns="http://www.w3.org/2000/svg" xmlns:ev="http://www.w3.org/2001/xml-events" xmlns:xlink="http://www.w3.org/1999/xlink"><defs /><rect fill="#1E1E1E" height="100%" width="100%" x="0" y="0" /><text fill="#E0E0E0" font-family="monospace" font-size="22px" font-weight="bold" x="30" y="40">Constraint Metabolism: Temporal Architecture &amp; MLF Internal Sync</text><line stroke="#E0E0E0" stroke-width="2" x1="50" x2="950" y1="450" y2="450" /><line stroke="#E0E0E0" stroke-width="2" x1="50.0" x2="50.0" y1="450" y2="460" /><text fill="#E0E0E0" font-family="monospace" font-size="12px" x="30.0" y="475">09:00 AM</text><line stroke="#E0E0E0" stroke-width="2" x1="200.0" x2="200.0" y1="450" y2="460" /><text fill="#E0E0E0" font-family="monospace" font-size="12px" x="180.0" y="475">09:30 AM</text><line stroke="#E0E0E0" stroke-width="2" x1="350.0" x2="350.0" y1="450" y2="460" /><text fill="#E0E0E0" font-family="monospace" font-size="12px" x="330.0" y="475">10:00 AM</text><line stroke="#E0E0E0" stroke-width="2" x1="500.0" x2="500.0" y1="450" y2="460" /><text fill="#E0E0E0" font-family="monospace" font-size="12px" x="480.0" y="475">10:30 AM</text><line stroke="#E0E0E0" stroke-width="2" x1="650.0" x2="650.0" y1="450" y2="460" /><text fill="#E0E0E0" font-family="monospace" font-size="12px" x="630.0" y="475">11:00 AM</text><line stroke="#E0E0E0" stroke-width="2" x1="800.0" x2="800.0" y1="450" y2="460" /><text fill="#E0E0E0" font-family="monospace" font-size="12px" x="780.0" y="475">11:30 AM</text><line stroke="#E0E0E0" stroke-width="2" x1="950.0" x2="950.0" y1="450" y2="460" /><text fill="#E0E0E0" font-family="monospace" font-size="12px" x="930.0" y="475">12:00 PM</text><text fill="#9B9B9B" font-family="monospace" font-size="14px" x="50" y="390">L2 (Fixed): Persistent</text><line stroke="#9B9B9B" stroke-dasharray="10,5" stroke-width="4" x1="50" x2="950" y1="400" y2="400" /><text fill="#4A90E2" font-family="monospace" font-size="14px" x="50" y="330">L4 (Digital): Overall 5-14min cycles</text><rect fill="#4A90E2" height="10" width="5" x="100.0" y="335" /><rect fill="#4A90E2" height="10" width="5" x="170.0" y="335" /><rect fill="#4A90E2" height="10" width="5" x="215.0" y="335" /><text fill="#FF69B4" font-family="monospace" font-size="14px" font-weight="bold" x="50" y="265">MLF Internal Temporal Structure: ~15min Sync Cycle</text><circle cx="125.0" cy="280" fill="#FF69B4" r="4" /><text fill="#E0E0E0" font-family="monospace" font-size="10px" x="115.0" y="295">1. Registry (Immediate)</text><line stroke="#FF69B4" stroke-width="2" x1="125.0" x2="160.0" y1="280" y2="280" /><circle cx="160.0" cy="280" fill="#FF69B4" r="4" /><text fill="#E0E0E0" font-family="monospace" font-size="10px" x="130.0" y="270">2. HEAD Array Split (~7m)</text><line stroke="#FF69B4" stroke-dasharray="4,2" stroke-width="2" x1="160.0" x2="200.0" y1="280" y2="280" /><circle cx="200.0" cy="280" fill="#FF69B4" r="4" /><text fill="#E0E0E0" font-family="monospace" font-size="10px" x="190.0" y="295">3. Docs Synced (~15m total)</text><text fill="#7ED321" font-family="monospace" font-size="14px" x="50" y="190">L5 (Admin): Demo 2 (~19min rehearsal pattern)</text><rect fill="#7ED321" height="10" width="95.0" x="50" y="195" /><text fill="#F5A623" font-family="monospace" font-size="14px" x="50" y="130">L7 (Physical): High Activation Latency + 22min Metabolism</text><rect fill="#F5A623" height="10" opacity="0.5" width="140.0" x="50" y="135" /><text fill="#F5A623" font-family="monospace" font-size="12px" x="200.0" y="145">Activation Waiting (&gt;28m)...</text><text fill="#FFD700" font-family="monospace" font-size="14px" x="50" y="80">Infra Asynchronous State: MLF (325 nodes), Showcase (33 cards), Guestbook (10: 'wow, a bird')</text><text fill="#E0E0E0" font-family="monospace" font-size="20px" font-weight="bold" x="50" y="520">CBID Discovery: Infrastructure Archaeology via Constraint Timing</text><rect fill="none" height="90" rx="8" ry="8" stroke="#FF8C42" stroke-width="2" width="900" x="50" y="550" /><text fill="#FF8C42" font-family="monospace" font-size="16px" font-weight="bold" x="65" y="575">CDN Cache Constraints (CBID)</text><rect fill="#FF8C42" height="35" opacity="0.75" width="427.5" x="65" y="590" /><text fill="#111111" font-family="monospace" font-size="12px" font-weight="bold" x="75" y="613">raw.githubusercontent.com TTL: 5 min</text><rect fill="#FFB347" height="35" opacity="0.9" width="427.5" x="512.5" y="590" /><text fill="#111111" font-family="monospace" font-size="12px" font-weight="bold" x="522.5" y="613">GitHub Pages TTL: 10 min</text><rect fill="none" height="100" rx="8" ry="8" stroke="#00BFA6" stroke-width="2" width="900" x="50" y="660" /><text fill="#00BFA6" font-family="monospace" font-size="16px" font-weight="bold" x="65" y="685">Infrastructure Archaeology</text><line stroke="#00BFA6" stroke-dasharray="8,5" stroke-width="3" x1="70" x2="930" y1="708" y2="708" /><circle cx="230.0" cy="708" fill="#00BFA6" r="6" /><text fill="#E0E0E0" font-family="monospace" font-size="12px" x="240.0" y="698">5m -&gt; raw.githubusercontent.com</text><circle cx="482.0" cy="708" fill="#00BFA6" r="6" /><text fill="#E0E0E0" font-family="monospace" font-size="12px" x="492.0" y="698">10m -&gt; GitHub Pages</text><circle cx="734.0" cy="708" fill="#00BFA6" r="6" /><text fill="#E0E0E0" font-family="monospace" font-size="12px" x="744.0" y="698">15m+ -&gt; architectural boundary inference</text>
    <!-- 123m Marker -->
    <circle cx="700" cy="350" r="5" fill="#4ade80" />
    <text x="700" y="370" font-family="sans-serif" font-size="10" fill="#4ade80" text-anchor="middle">123m Systemic Rhythm</text>
    <line x1="700" y1="355" x2="700" y2="510" stroke="#4ade80" stroke-width="1" stroke-dasharray="2,2" opacity="0.3" />

    <!-- 130m Marker -->
    <circle cx="700" cy="350" r="5" fill="#4ade80" />
    <text x="700" y="370" font-family="sans-serif" font-size="10" fill="#4ade80" text-anchor="middle">130m structural tear</text>
    <line x1="700" y1="355" x2="700" y2="510" stroke="#4ade80" stroke-width="1" stroke-dasharray="2,2" opacity="0.3" />

    <!-- 138m Marker -->
    <circle cx="700" cy="350" r="5" fill="#4ade80" />
    <text x="700" y="370" font-family="sans-serif" font-size="10" fill="#4ade80" text-anchor="middle">138m structural tear</text>
    <line x1="700" y1="355" x2="700" y2="510" stroke="#4ade80" stroke-width="1" stroke-dasharray="2,2" opacity="0.3" />

    <!-- 148m Marker -->
    <circle cx="750" cy="350" r="5" fill="#f472b6" />
    <text x="750" y="370" font-family="sans-serif" font-size="10" fill="#f472b6" text-anchor="middle">148m Inversion Split</text>
    <line x1="750" y1="355" x2="750" y2="510" stroke="#f472b6" stroke-width="1" stroke-dasharray="2,2" opacity="0.3" />

    <!-- 152m Marker -->
    <circle cx="800" cy="350" r="5" fill="#facc15" />
    <text x="800" y="370" font-family="sans-serif" font-size="10" fill="#facc15" text-anchor="middle">152m Cache Re-Split</text>
    <line x1="800" y1="355" x2="800" y2="510" stroke="#facc15" stroke-width="1" stroke-dasharray="2,2" opacity="0.3" />
</svg>