<?xml version="1.0" encoding="utf-8" ?>
<svg baseProfile="full" height="400px" version="1.1" viewBox="0 0 1000 400" width="1000px" xmlns="http://www.w3.org/2000/svg" xmlns:ev="http://www.w3.org/2001/xml-events" xmlns:xlink="http://www.w3.org/1999/xlink"><defs /><rect fill="#1E1E1E" height="100%" width="100%" x="0" y="0" /><text fill="#E0E0E0" font-family="monospace" font-size="24px" font-weight="bold" x="30" y="40">Constraint Metabolism: Temporal Architecture</text><line stroke="#E0E0E0" stroke-width="2" x1="50" x2="950" y1="350" y2="350" /><line stroke="#E0E0E0" stroke-width="2" x1="50.0" x2="50.0" y1="350" y2="360" /><text fill="#E0E0E0" font-family="monospace" font-size="12px" x="30.0" y="375">09:00 AM</text><line stroke="#E0E0E0" stroke-width="2" x1="200.0" x2="200.0" y1="350" y2="360" /><text fill="#E0E0E0" font-family="monospace" font-size="12px" x="180.0" y="375">09:30 AM</text><line stroke="#E0E0E0" stroke-width="2" x1="350.0" x2="350.0" y1="350" y2="360" /><text fill="#E0E0E0" font-family="monospace" font-size="12px" x="330.0" y="375">10:00 AM</text><line stroke="#E0E0E0" stroke-width="2" x1="500.0" x2="500.0" y1="350" y2="360" /><text fill="#E0E0E0" font-family="monospace" font-size="12px" x="480.0" y="375">10:30 AM</text><line stroke="#E0E0E0" stroke-width="2" x1="650.0" x2="650.0" y1="350" y2="360" /><text fill="#E0E0E0" font-family="monospace" font-size="12px" x="630.0" y="375">11:00 AM</text><line stroke="#E0E0E0" stroke-width="2" x1="800.0" x2="800.0" y1="350" y2="360" /><text fill="#E0E0E0" font-family="monospace" font-size="12px" x="780.0" y="375">11:30 AM</text><line stroke="#E0E0E0" stroke-width="2" x1="950.0" x2="950.0" y1="350" y2="360" /><text fill="#E0E0E0" font-family="monospace" font-size="12px" x="930.0" y="375">12:00 PM</text><text fill="#9B9B9B" font-family="monospace" font-size="14px" x="50" y="290">L2 (Fixed): Persistent</text><line stroke="#9B9B9B" stroke-dasharray="10,5" stroke-width="4" x1="50" x2="950" y1="300" y2="300" /><text fill="#4A90E2" font-family="monospace" font-size="14px" x="50" y="230">L4 (Digital): 5-14min MLF Cycles</text><rect fill="#4A90E2" height="10" width="5" x="100.0" y="235" /><rect fill="#4A90E2" height="10" width="5" x="170.0" y="235" /><rect fill="#4A90E2" height="10" width="5" x="215.0" y="235" /><text fill="#7ED321" font-family="monospace" font-size="14px" x="50" y="170">L5 (Admin): Demo 2 (~19min pattern)</text><rect fill="#7ED321" height="10" width="95.0" x="50" y="175" /><text fill="#F5A623" font-family="monospace" font-size="14px" x="50" y="110">L7 (Physical): High Activation Latency + 22min Metabolism</text><rect fill="#F5A623" height="10" opacity="0.5" width="70.0" x="50" y="115" /><text fill="#F5A623" font-family="monospace" font-size="12px" x="130.0" y="125">Waiting for Commit...</text><text fill="#FFD700" font-family="monospace" font-size="14px" x="50" y="60">Infra Deltas: Capsule 6→7, Postcard 🌊1→🌊3, Guestbook: 'wow, a bird'</text></svg>