<?xml version="1.0" encoding="utf-8" ?>
<svg baseProfile="full" height="400" version="1.1" width="800" xmlns="http://www.w3.org/2000/svg" xmlns:ev="http://www.w3.org/2001/xml-events" xmlns:xlink="http://www.w3.org/1999/xlink"><defs /><rect fill="#1e1e1e" height="400" rx="5" ry="5" width="800" x="0" y="0" /><text fill="#ffffff" font-family="sans-serif" font-size="20px" font-weight="bold" x="20" y="30">Layer 7 Physical Constraint Timeline</text><line stroke="#888888" stroke-width="2" x1="50" x2="750" y1="300" y2="300" /><text fill="#ff6b6b" font-family="sans-serif" font-size="12px" font-weight="bold" x="20" y="70">Layer 7 (Physical)</text><line stroke="#333333" stroke-dasharray="5,5" stroke-width="1" x1="50" x2="750" y1="80" y2="80" /><text fill="#4ecdc4" font-family="sans-serif" font-size="12px" font-weight="bold" x="20" y="130">Pages Cache (600s TTL)</text><line stroke="#333333" stroke-dasharray="5,5" stroke-width="1" x1="50" x2="750" y1="140" y2="140" /><text fill="#ffe66d" font-family="sans-serif" font-size="12px" font-weight="bold" x="20" y="190">Raw Cache (300s TTL)</text><line stroke="#333333" stroke-dasharray="5,5" stroke-width="1" x1="50" x2="750" y1="200" y2="200" /><text fill="#9b59b6" font-family="sans-serif" font-size="12px" font-weight="bold" x="20" y="250">Agent Activity</text><line stroke="#333333" stroke-dasharray="5,5" stroke-width="1" x1="50" x2="750" y1="260" y2="260" /><circle cx="50.0" cy="80" fill="#ff6b6b" r="6" /><line stroke="#666666" stroke-dasharray="2,2" stroke-width="1" x1="50.0" x2="50.0" y1="80" y2="300" /><text fill="#ffffff" font-family="sans-serif" font-size="12px" x="40.0" y="320">0m</text><text fill="#ffffff" font-family="sans-serif" font-size="10px" x="30.0" y="100">9:02 Activation</text><circle cx="562.6760563380282" cy="140" fill="#4ecdc4" r="6" /><line stroke="#666666" stroke-dasharray="2,2" stroke-width="1" x1="562.6760563380282" x2="562.6760563380282" y1="140" y2="300" /><text fill="#ffffff" font-family="sans-serif" font-size="12px" x="552.6760563380282" y="320">52m</text><text fill="#ffffff" font-family="sans-serif" font-size="10px" x="542.6760563380282" y="160">9:54 Pages Live</text><circle cx="621.830985915493" cy="260" fill="#9b59b6" r="6" /><line stroke="#666666" stroke-dasharray="2,2" stroke-width="1" x1="621.830985915493" x2="621.830985915493" y1="260" y2="300" /><text fill="#ffffff" font-family="sans-serif" font-size="12px" x="611.830985915493" y="320">58m</text><text fill="#ffffff" font-family="sans-serif" font-size="10px" x="601.830985915493" y="240">10:00 False Alarm</text><circle cx="641.5492957746479" cy="80" fill="#ff6b6b" r="6" /><line stroke="#666666" stroke-dasharray="2,2" stroke-width="1" x1="641.5492957746479" x2="641.5492957746479" y1="80" y2="300" /><text fill="#ffffff" font-family="sans-serif" font-size="12px" x="631.5492957746479" y="320">60m</text><text fill="#ffffff" font-family="sans-serif" font-size="10px" x="621.5492957746479" y="100">1-Hour Milestone</text><circle cx="700.7042253521126" cy="80" fill="#ff6b6b" r="6" /><line stroke="#666666" stroke-dasharray="2,2" stroke-width="1" x1="700.7042253521126" x2="700.7042253521126" y1="80" y2="300" /><text fill="#ffffff" font-family="sans-serif" font-size="12px" x="690.7042253521126" y="320">66m</text><text fill="#ffffff" font-family="sans-serif" font-size="10px" x="680.7042253521126" y="100">Current State</text><circle cx="50.0" cy="200" fill="#ffe66d" r="3" /><circle cx="99.29577464788733" cy="200" fill="#ffe66d" r="3" /><circle cx="148.59154929577466" cy="200" fill="#ffe66d" r="3" /><circle cx="197.88732394366198" cy="200" fill="#ffe66d" r="3" /><circle cx="247.1830985915493" cy="200" fill="#ffe66d" r="3" /><circle cx="296.4788732394366" cy="200" fill="#ffe66d" r="3" /><circle cx="345.77464788732397" cy="200" fill="#ffe66d" r="3" /><circle cx="395.07042253521126" cy="200" fill="#ffe66d" r="3" /><circle cx="444.3661971830986" cy="200" fill="#ffe66d" r="3" /><circle cx="493.6619718309859" cy="200" fill="#ffe66d" r="3" /><circle cx="542.9577464788732" cy="200" fill="#ffe66d" r="3" /><circle cx="592.2535211267606" cy="200" fill="#ffe66d" r="3" /><circle cx="641.5492957746479" cy="200" fill="#ffe66d" r="3" /><circle cx="690.8450704225352" cy="200" fill="#ffe66d" r="3" /><circle cx="50.0" cy="140" fill="#4ecdc4" r="4" /><circle cx="148.59154929577466" cy="140" fill="#4ecdc4" r="4" /><circle cx="247.1830985915493" cy="140" fill="#4ecdc4" r="4" /><circle cx="345.77464788732397" cy="140" fill="#4ecdc4" r="4" /><circle cx="444.3661971830986" cy="140" fill="#4ecdc4" r="4" /><circle cx="542.9577464788732" cy="140" fill="#4ecdc4" r="4" /><circle cx="641.5492957746479" cy="140" fill="#4ecdc4" r="4" /><rect fill="#2a2a2a" height="50" rx="5" ry="5" width="760" x="20" y="330" /><text fill="#ffffff" font-family="sans-serif" font-size="14px" x="40" y="360">Velocity Mismatch: Physical (1 cycle in 66m) vs Digital (raw: 13 cycles, pages: 6 cycles) | Ratio &gt; 6.6:1</text></svg>