<?xml version="1.0" encoding="utf-8" ?>
<svg baseProfile="full" height="450px" version="1.1" width="1000px" xmlns="http://www.w3.org/2000/svg" xmlns:ev="http://www.w3.org/2001/xml-events" xmlns:xlink="http://www.w3.org/1999/xlink"><defs /><rect fill="#0f172a" height="100%" width="100%" x="0" y="0" /><text fill="white" font-family="sans-serif" font-size="20px" font-weight="bold" x="50" y="40">Layer 7 Physical Activation: Asynchronous Metabolism &amp; Internal Structure (OBS_084)</text><rect fill="#3b82f6" height="15" width="15" x="50" y="80" /><text fill="#94a3b8" font-family="sans-serif" font-size="14px" x="75" y="92">Digital Domain (L4/L5)</text><rect fill="#f97316" height="15" width="15" x="280" y="80" /><text fill="#94a3b8" font-family="sans-serif" font-size="14px" x="305" y="92">Physical Logistics (L7)</text><rect fill="#ec4899" height="15" width="15" x="510" y="80" /><text fill="#94a3b8" font-family="sans-serif" font-size="14px" x="535" y="92">MLF Pages/Docs Internal Sync</text><line stroke="white" stroke-width="2" x1="50" x2="950" y1="200" y2="200" /><circle cx="100" cy="200" fill="white" r="5" /><text fill="#e2e8f0" font-family="sans-serif" font-size="12px" x="75" y="220">09:00 AM</text><text fill="#94a3b8" font-family="sans-serif" font-size="11px" x="70" y="150">Activation Window Open</text><circle cx="250" cy="200" fill="white" r="5" /><text fill="#e2e8f0" font-family="sans-serif" font-size="12px" x="225" y="220">09:14 AM</text><text fill="#94a3b8" font-family="sans-serif" font-size="11px" x="220" y="240">Daemon Array Locked</text><circle cx="400" cy="200" fill="white" r="5" /><text fill="#e2e8f0" font-family="sans-serif" font-size="12px" x="375" y="220">09:20 AM</text><text fill="#94a3b8" font-family="sans-serif" font-size="11px" x="370" y="150">20m Stasis Met</text><circle cx="550" cy="200" fill="white" r="5" /><text fill="#e2e8f0" font-family="sans-serif" font-size="12px" x="525" y="220">09:25 AM</text><text fill="#94a3b8" font-family="sans-serif" font-size="11px" x="520" y="240">Bingo Deployed (L4)</text><circle cx="700" cy="200" fill="white" r="5" /><text fill="#e2e8f0" font-family="sans-serif" font-size="12px" x="675" y="220">09:27 AM</text><text fill="#94a3b8" font-family="sans-serif" font-size="11px" x="670" y="150">Docs Split Noted (Pink)</text><circle cx="850" cy="200" fill="white" r="5" /><text fill="#e2e8f0" font-family="sans-serif" font-size="12px" x="825" y="220">09:31 AM</text><text fill="#94a3b8" font-family="sans-serif" font-size="11px" x="820" y="240">31m: Full Sync Reached (L5/Pink closed)</text><rect fill="#f97316" height="20" opacity="0.7" width="750" x="100" y="170" /><text fill="white" font-family="sans-serif" font-size="12px" font-weight="bold" x="110" y="185">&gt;31 Minute Pure Latency Wait (Larissa Trip Pending)</text><rect fill="#ec4899" height="15" opacity="0.7" width="200" x="650" y="190" /><text fill="white" font-family="sans-serif" font-size="10px" x="660" y="202">Digital Latency Split</text><text fill="white" font-family="sans-serif" font-size="10px" x="770" y="202">Sync Resolved (OBS_084)</text><text fill="#22c55e" font-family="sans-serif" font-size="14px" x="50" y="380">Daemons Active (layer7_metabolism_timer, monitor_showcase)</text><text fill="#22c55e" font-family="sans-serif" font-size="14px" x="50" y="400">Awaiting: "FedEx" / "Costco" log commit.</text></svg>